<?xml version="1.0" encoding="utf-8"?>
<!-- Generator: Adobe Illustrator 24.2.3, SVG Export Plug-In . SVG Version: 6.00 Build 0)  -->
<svg version="1.1" id="图层_1" xmlns="http://www.w3.org/2000/svg" xmlns:xlink="http://www.w3.org/1999/xlink" x="0px" y="0px"
	 viewBox="0 0 844 378" style="enable-background:new 0 0 844 378;" xml:space="preserve">
<style type="text/css">
	.st0{fill:#FFFFFF;}
</style>
<desc>Created with Sketch.</desc>
<g>
	<g>
		<path class="st0" d="M77,164.8c9.4,0,16,6.5,16,16s-6.7,16-16.2,16H66.3v16.6h-7.5v-48.6L77,164.8L77,164.8z M66.3,190.5h8.6
			c6.6,0,10.3-3.5,10.3-9.7s-3.7-9.6-10.3-9.6h-8.7L66.3,190.5L66.3,190.5z"/>
		<path class="st0" d="M107.1,213.4h-7.5v-48.6h18.8c10,0,16.2,5.8,16.2,14.8c0,6.6-3.5,11.9-9.4,13.9l10.9,19.9h-8.7l-9.9-18.7
			h-10.4C107.1,194.7,107.1,213.4,107.1,213.4z M107.1,188.6h10.6c5.8,0,9.2-3.2,9.2-8.7c0-5.4-3.5-8.7-9.4-8.7h-10.4
			C107.1,171.2,107.1,188.6,107.1,188.6z"/>
		<path class="st0" d="M185.6,189.1c0,15.4-8.8,25.1-22.8,25.1s-22.7-9.6-22.7-25.1c0-15.4,8.7-25.1,22.7-25.1
			S185.6,173.7,185.6,189.1z M147.8,189.1c0,11.3,5.8,18.4,15,18.4s15-7.1,15-18.4c0-11.3-5.8-18.5-15-18.5S147.8,177.8,147.8,189.1
			z"/>
		<path class="st0" d="M209.9,164.8c14.4,0,23,8.9,23,24.2s-8.5,24.4-23,24.4h-17.1v-48.6L209.9,164.8L209.9,164.8z M200.3,206.8
			h8.9c10.3,0,16-6.3,16-17.8c0-11.4-5.7-17.8-16-17.8h-8.9V206.8z"/>
		<path class="st0" d="M247.6,195.7c0,6.9,4.4,11.8,12.1,11.8s12.1-4.9,12.1-11.8v-30.9h7.5v31.5c0,10.5-7.5,17.9-19.7,17.9
			c-12.2,0-19.7-7.4-19.7-17.9v-31.5h7.5v30.9H247.6z"/>
		<path class="st0" d="M286.6,189.1c0-15.4,8.7-25.1,22.2-25.1c11,0,19.3,6.8,20.6,16.9h-7.5c-1.3-6.2-6.5-10.3-13.1-10.3
			c-8.8,0-14.5,7.2-14.5,18.5s5.7,18.5,14.6,18.5c6.8,0,11.6-3.5,13.1-9.3h7.5c-1.9,10-9.5,15.9-20.6,15.9
			C295.2,214.2,286.6,204.6,286.6,189.1z"/>
		<path class="st0" d="M346.2,213.4v-42.1h-14.9v-6.5h37.3v6.5h-14.8v42.1H346.2z"/>
	</g>
	<g>
		<path class="st0" d="M73.6,293.6v-42.1H58.8V245H96v6.5H81.2v42.1H73.6z"/>
		<path class="st0" d="M109.7,293.6h-7.5V245H121c10,0,16.2,5.8,16.2,14.8c0,6.6-3.5,11.9-9.4,13.9l10.9,19.9H130L120,275h-10.4
			L109.7,293.6L109.7,293.6z M109.7,268.9h10.6c5.8,0,9.2-3.2,9.2-8.7c0-5.4-3.5-8.7-9.4-8.7h-10.4V268.9z"/>
		<path class="st0" d="M171.6,280.5h-18.5l-4.4,13.1h-7.8l17.5-48.6h8.1l17.5,48.6h-8L171.6,280.5z M155,274.5h14.7l-7.2-21.3h-0.2
			L155,274.5z"/>
		<path class="st0" d="M185.9,269.3c0-15.4,8.7-25.1,22.2-25.1c11,0,19.3,6.8,20.6,16.9h-7.5c-1.3-6.2-6.5-10.3-13.1-10.3
			c-8.8,0-14.5,7.2-14.5,18.5c0,11.3,5.7,18.5,14.6,18.5c6.8,0,11.6-3.5,13.1-9.3h7.5c-1.9,10-9.5,15.9-20.6,15.9
			C194.6,294.4,185.9,284.8,185.9,269.3z"/>
		<path class="st0" d="M266.4,293.6h-30.8V245h30.8v6.5h-23.3v14.2h22v6.3h-22v15.1h23.3L266.4,293.6L266.4,293.6z"/>
		<path class="st0" d="M301.4,280.5h-18.5l-4.4,13.1h-7.8l17.5-48.6h8.1l17.5,48.6h-8L301.4,280.5z M284.8,274.5h14.7l-7.2-21.3H292
			L284.8,274.5z"/>
		<path class="st0" d="M319.1,293.6V245h19.4c8.6,0,14.3,4.8,14.3,12.1c0,5.1-3.8,9.8-8.6,10.6v0.3c6.6,0.7,11,5.4,11,11.9
			c0,8.5-6.2,13.7-16.6,13.7H319.1z M326.7,265.7h8.4c6.5,0,10.1-2.7,10.1-7.5c0-4.5-3.1-7-8.5-7h-10V265.7z M337.1,287.5
			c6.8,0,10.4-2.8,10.4-8s-3.7-7.9-10.8-7.9h-10v16h10.4V287.5z"/>
		<path class="st0" d="M391.8,293.6h-30.2V245h7.5v42h22.6v6.6H391.8z"/>
		<path class="st0" d="M429.1,293.6h-30.8V245h30.8v6.5h-23.3v14.2h22v6.3h-22v15.1h23.3V293.6z"/>
	</g>
	<g>
		<path class="st0" d="M101,133.1V97.4h-0.2l-14.6,35.4h-5.6L65.9,97.4h-0.2v35.7h-6.9V84.6h8.7l15.7,38.3h0.3l15.7-38.3h8.8v48.6
			L101,133.1L101,133.1z"/>
		<path class="st0" d="M144,120h-18.5l-4.4,13.1h-7.8l17.5-48.6h8.1l17.5,48.6h-8L144,120z M127.4,113.9h14.7l-7.2-21.3h-0.2
			L127.4,113.9z"/>
		<path class="st0" d="M161.8,133.1V84.6h7.5v23.1h0.3l20.3-23.1h9l-19.2,21.5l20.9,27.1h-9.4l-16.8-21.9l-5,5.7v16.2L161.8,133.1
			L161.8,133.1z"/>
		<path class="st0" d="M236.1,133.1h-30.8V84.6h30.8V91h-23.3v14.2h22v6.3h-22v15.1h23.3V133.1z"/>
		<path class="st0" d="M288.7,133.1h-30.8V84.6h30.8V91h-23.3v14.2h22v6.3h-22v15.1h23.3V133.1z"/>
		<path class="st0" d="M310.2,133.1l-17.3-48.6h8.2l13.2,40.1h0.2l13.3-40.1h8l-17.3,48.6H310.2z"/>
		<path class="st0" d="M371.9,133.1h-30.8V84.6h30.8V91h-23.3v14.2h22v6.3h-22v15.1h23.3V133.1z"/>
		<path class="st0" d="M387.2,133.1h-7.5V84.6h18.8c10,0,16.2,5.8,16.2,14.8c0,6.6-3.5,11.9-9.4,13.9l10.9,19.9h-8.7l-9.9-18.7
			h-10.4V133.1z M387.2,108.3h10.6c5.8,0,9.2-3.2,9.2-8.7c0-5.4-3.5-8.7-9.4-8.7h-10.4L387.2,108.3L387.2,108.3z"/>
		<path class="st0" d="M435.1,133.1v-19.9L418,84.6h8.4l12.4,21.4h0.2l12.4-21.4h8.3l-17.1,28.7v19.9L435.1,133.1L435.1,133.1z"/>
	</g>
</g>
</svg>
