<?xml version="1.0" encoding="utf-8"?>
<!-- Generator: Adobe Illustrator 24.2.3, SVG Export Plug-In . SVG Version: 6.00 Build 0)  -->
<svg version="1.1" id="图层_1" xmlns="http://www.w3.org/2000/svg" xmlns:xlink="http://www.w3.org/1999/xlink" x="0px" y="0px"
	 viewBox="0 0 1326 446" style="enable-background:new 0 0 1326 446;" xml:space="preserve">
<style type="text/css">
	.st0{fill:url(#SVGID_1_);}
	.st1{fill:url(#SVGID_2_);}
	.st2{opacity:0.7;fill:url(#SVGID_3_);enable-background:new    ;}
	.st3{fill:url(#SVGID_4_);}
	.st4{fill:url(#SVGID_5_);}
	.st5{opacity:0.7;fill:url(#SVGID_6_);enable-background:new    ;}
	.st6{fill:url(#SVGID_7_);}
	.st7{fill:url(#SVGID_8_);}
	.st8{fill:#3088e2;}
</style>
<g>
	<desc>Created with Sketch.</desc>
	<g>
		
			<linearGradient id="SVGID_1_" gradientUnits="userSpaceOnUse" x1="251.1" y1="242.25" x2="317.5" y2="242.25" gradientTransform="matrix(1 0 0 -1 0 448)">
			<stop  offset="0" style="stop-color:#F15A24"/>
			<stop  offset="0.1271" style="stop-color:#F46F1D"/>
			<stop  offset="0.3821" style="stop-color:#F99310"/>
			<stop  offset="0.6204" style="stop-color:#FCAE07"/>
			<stop  offset="0.8335" style="stop-color:#FEBD02"/>
			<stop  offset="1" style="stop-color:#FFC300"/>
		</linearGradient>
		<polygon class="st0" points="317.5,293.2 251.1,338.4 251.1,73.1 317.5,118.2 		"/>
		
			<linearGradient id="SVGID_2_" gradientUnits="userSpaceOnUse" x1="546.2" y1="242.25" x2="612.6" y2="242.25" gradientTransform="matrix(1 0 0 -1 0 448)">
			<stop  offset="1.248265e-07" style="stop-color:#29ABE2"/>
			<stop  offset="1" style="stop-color:#1C5DAB"/>
		</linearGradient>
		<polygon class="st1" points="546.2,309.6 612.6,354.8 612.6,56.7 546.2,101.8 		"/>
		
			<linearGradient id="SVGID_3_" gradientUnits="userSpaceOnUse" x1="701.5251" y1="271.4688" x2="-142.702" y2="271.4688" gradientTransform="matrix(1 0 0 -1 9.110685e-06 401.0624)">
			<stop  offset="1.248265e-07" style="stop-color:#0071BC"/>
			<stop  offset="7.186371e-02" style="stop-color:#0577C0;stop-opacity:0.9317"/>
			<stop  offset="0.4404" style="stop-color:#1894D3;stop-opacity:0.5816"/>
			<stop  offset="0.7622" style="stop-color:#25A5DE;stop-opacity:0.2759"/>
			<stop  offset="1" style="stop-color:#29ABE2;stop-opacity:5.000000e-02"/>
		</linearGradient>
		<path class="st2" d="M697.3,82.1l-18.4,46.5C355.3,245.9,26.4,113.5,26.4,113.5S378.5,236.7,697.3,82.1z"/>
		
			<linearGradient id="SVGID_4_" gradientUnits="userSpaceOnUse" x1="103.6" y1="242.25" x2="169.9" y2="242.25" gradientTransform="matrix(1 0 0 -1 0 448)">
			<stop  offset="0" style="stop-color:#E92130"/>
			<stop  offset="1" style="stop-color:#ED732F"/>
		</linearGradient>
		<polygon class="st3" points="169.9,309.6 103.6,354.8 103.6,56.7 169.9,101.8 		"/>
		
			<linearGradient id="SVGID_5_" gradientUnits="userSpaceOnUse" x1="6831.6416" y1="242.25" x2="6897.9414" y2="242.25" gradientTransform="matrix(-1 0 0 -1 7296.6416 448)">
			<stop  offset="0" style="stop-color:#00A99D"/>
			<stop  offset="0.4581" style="stop-color:#42B771"/>
			<stop  offset="1" style="stop-color:#8CC63F"/>
		</linearGradient>
		<polygon class="st4" points="398.7,293.2 465,338.4 465,73.1 398.7,118.2 		"/>
		
			<linearGradient id="SVGID_6_" gradientUnits="userSpaceOnUse" x1="-9158.248" y1="4015.7217" x2="-10002.4746" y2="4015.7217" gradientTransform="matrix(-1 0 0 1 -9136 -3733.8818)">
			<stop  offset="0" style="stop-color:#0071BC"/>
			<stop  offset="7.186359e-02" style="stop-color:#0577C0;stop-opacity:0.9317"/>
			<stop  offset="0.4404" style="stop-color:#1894D3;stop-opacity:0.5816"/>
			<stop  offset="0.7622" style="stop-color:#25A5DE;stop-opacity:0.2759"/>
			<stop  offset="1" style="stop-color:#29ABE2;stop-opacity:5.000000e-02"/>
		</linearGradient>
		<path class="st5" d="M26.4,329.3l18.4-46.5C368.4,165.6,697.3,298,697.3,298S345.3,174.7,26.4,329.3z"/>
		
			<linearGradient id="SVGID_7_" gradientUnits="userSpaceOnUse" x1="251.1" y1="174.5" x2="317.5" y2="174.5" gradientTransform="matrix(1 0 0 -1 0 448)">
			<stop  offset="0" style="stop-color:#F15A24"/>
			<stop  offset="0.1271" style="stop-color:#F46F1D"/>
			<stop  offset="0.3821" style="stop-color:#F99310"/>
			<stop  offset="0.6204" style="stop-color:#FCAE07"/>
			<stop  offset="0.8335" style="stop-color:#FEBD02"/>
			<stop  offset="1" style="stop-color:#FFC300"/>
		</linearGradient>
		<polygon class="st6" points="317.5,208.6 251.1,208.6 251.1,338.4 317.5,293.2 		"/>
		
			<linearGradient id="SVGID_8_" gradientUnits="userSpaceOnUse" x1="546.2" y1="158.1" x2="612.6" y2="158.1" gradientTransform="matrix(1 0 0 -1 0 448)">
			<stop  offset="1.248265e-07" style="stop-color:#29ABE2"/>
			<stop  offset="1" style="stop-color:#1C5DAB"/>
		</linearGradient>
		<polygon class="st7" points="546.2,225 546.2,309.6 612.6,354.8 612.6,225 		"/>
	</g>
	<g>
		<g>
			<path class="st8" d="M783.3,172.4c12.7,0,21.6,8.8,21.6,21.5c0,12.8-9,21.6-21.9,21.6h-14.1v22.4h-10.2v-65.5H783.3z M768.9,207
				h11.7c8.9,0,13.9-4.8,13.9-13s-5-13-13.8-13H769v26H768.9z"/>
			<path class="st8" d="M823.9,237.9h-10.2v-65.5h25.4c13.5,0,21.9,7.8,21.9,20c0,8.9-4.7,16-12.7,18.7l14.7,26.8h-11.7L838,212.7
				h-14v25.2H823.9z M823.9,204.5h14.3c7.9,0,12.3-4.3,12.3-11.8c0-7.3-4.8-11.8-12.6-11.8h-14V204.5z"/>
			<path class="st8" d="M929.8,205.2c0,20.8-11.8,33.8-30.7,33.8s-30.7-13-30.7-33.8s11.8-33.9,30.7-33.9
				C917.9,171.3,929.8,184.4,929.8,205.2z M878.8,205.2c0,15.3,7.9,24.9,20.3,24.9c12.4,0,20.2-9.6,20.2-24.9s-7.8-24.9-20.2-24.9
				C886.7,180.3,878.8,189.9,878.8,205.2z"/>
			<path class="st8" d="M962.6,172.4c19.5,0,31,12,31,32.6c0,20.7-11.5,32.9-31,32.9h-23.1v-65.5H962.6z M949.6,229.1h12
				c13.9,0,21.6-8.5,21.6-24c0-15.4-7.7-24-21.6-24h-12V229.1z"/>
			<path class="st8" d="M1013.4,214.1c0,9.3,5.9,15.9,16.3,15.9s16.4-6.6,16.4-15.9v-41.6h10.1V215c0,14.1-10.1,24.1-26.5,24.1
				s-26.5-10-26.5-24.1v-42.5h10.2L1013.4,214.1L1013.4,214.1z"/>
			<path class="st8" d="M1066,205.2c0-20.7,11.7-33.8,30-33.8c14.8,0,26.1,9.1,27.8,22.8h-10.1c-1.8-8.4-8.8-13.9-17.7-13.9
				c-11.9,0-19.6,9.8-19.6,24.9c0,15.3,7.6,25,19.7,25c9.1,0,15.6-4.7,17.7-12.6h10.1c-2.5,13.5-12.8,21.5-27.8,21.5
				C1077.6,239,1066,226,1066,205.2z"/>
			<path class="st8" d="M1146.5,237.9v-56.7h-20.1v-8.8h50.2v8.8h-20v56.7H1146.5z"/>
		</g>
		<g>
			<path class="st8" d="M778.8,346.2v-56.7h-20.1v-8.8H809v8.8h-20v56.7H778.8z"/>
			<path class="st8" d="M827.4,346.2h-10.2v-65.5h25.4c13.5,0,21.9,7.8,21.9,20c0,8.9-4.7,16-12.7,18.7l14.7,26.8h-11.7L841.4,321
				h-14V346.2z M827.4,312.8h14.3c7.9,0,12.3-4.3,12.3-11.8c0-7.3-4.8-11.8-12.6-11.8h-14V312.8z"/>
			<path class="st8" d="M911,328.5h-25l-6,17.7h-10.6l23.6-65.5h11l23.6,65.5h-10.8L911,328.5z M888.6,320.3h19.8l-9.8-28.7h-0.3
				L888.6,320.3z"/>
			<path class="st8" d="M930.2,313.4c0-20.7,11.7-33.8,30-33.8c14.8,0,26.1,9.1,27.8,22.8h-10c-1.8-8.4-8.8-13.9-17.7-13.9
				c-11.9,0-19.6,9.8-19.6,24.9c0,15.3,7.6,25,19.7,25c9.1,0,15.6-4.7,17.7-12.6h10.1c-2.5,13.5-12.8,21.5-27.8,21.5
				C941.9,347.3,930.2,334.3,930.2,313.4z"/>
			<path class="st8" d="M1038.8,346.2h-41.6v-65.5h41.6v8.8h-31.4v19.2h29.7v8.4h-29.7v20.3h31.4L1038.8,346.2L1038.8,346.2z"/>
			<path class="st8" d="M1085.9,328.5h-25l-6,17.7h-10.6l23.6-65.5h11l23.6,65.5h-10.8L1085.9,328.5z M1063.6,320.3h19.8l-9.8-28.7
				h-0.3L1063.6,320.3z"/>
			<path class="st8" d="M1109.9,346.2v-65.5h26.1c11.6,0,19.2,6.4,19.2,16.3c0,6.9-5.1,13.2-11.7,14.3v0.4c8.9,1,14.9,7.3,14.9,16
				c0,11.5-8.4,18.5-22.3,18.5L1109.9,346.2L1109.9,346.2z M1120.1,308.6h11.4c8.8,0,13.7-3.6,13.7-10.1c0-6.1-4.2-9.4-11.5-9.4
				h-13.5L1120.1,308.6L1120.1,308.6z M1134.1,337.9c9.2,0,14-3.8,14-10.8c0-7.1-5-10.7-14.6-10.7h-13.4V338h14V337.9z"/>
			<path class="st8" d="M1208,346.2h-40.7v-65.5h10.2v56.7h30.5V346.2z"/>
			<path class="st8" d="M1258.2,346.2h-41.6v-65.5h41.6v8.8h-31.4v19.2h29.7v8.4h-29.7v20.3h31.4V346.2z"/>
		</g>
		<g>
			<path class="st8" d="M815.7,129.7V81.5h-0.3l-19.7,47.7h-7.5l-19.8-47.7H768v48.2h-9.3V64.2h11.8l21.2,51.7h0.4l21.2-51.7H825
				v65.5H815.7z"/>
			<path class="st8" d="M873.7,112h-25l-6,17.7h-10.6l23.6-65.5h11l23.6,65.5h-10.8L873.7,112z M851.4,103.8h19.8l-9.8-28.7h-0.3
				L851.4,103.8z"/>
			<path class="st8" d="M897.7,129.7V64.2h10.2v31.2h0.4l27.4-31.2h12.1l-26,29l28.1,36.5h-12.6l-22.7-29.5l-6.7,7.7v21.8H897.7z"/>
			<path class="st8" d="M998,129.7h-41.6V64.2H998V73h-31.4v19.2h29.7v8.4h-29.7v20.3H998V129.7z"/>
			<path class="st8" d="M1068.8,129.7h-41.6V64.2h41.6V73h-31.4v19.2h29.7v8.4h-29.7v20.3h31.4V129.7z"/>
			<path class="st8" d="M1097.8,129.7l-23.4-65.5h11l17.8,54.1h0.3l17.9-54.1h10.8l-23.4,65.5H1097.8z"/>
			<path class="st8" d="M1181.1,129.7h-41.6V64.2h41.6V73h-31.4v19.2h29.7v8.4h-29.7v20.3h31.4V129.7z"/>
			<path class="st8" d="M1201.7,129.7h-10.2V64.2h25.4c13.5,0,21.9,7.8,21.9,20c0,8.9-4.7,16-12.7,18.7l14.7,26.8H1229l-13.3-25.2
				h-14V129.7z M1201.7,96.3h14.3c7.9,0,12.3-4.3,12.3-11.8c0-7.3-4.8-11.8-12.6-11.8h-14L1201.7,96.3L1201.7,96.3z"/>
			<path class="st8" d="M1266.3,129.7v-26.8l-23.1-38.7h11.3l16.7,28.9h0.3l16.7-28.9h11.3l-23.1,38.7v26.8H1266.3z"/>
		</g>
	</g>
</g>
</svg>
